<svg width="500" height="500" viewBox="0 0 500 500" fill="none" xmlns="http://www.w3.org/2000/svg">
<rect width="500" height="500" rx="40" fill="#43FF83"/>
<path d="M139.51 394.075C138.416 394.075 137.497 393.727 136.752 393.031C136.056 392.286 135.708 391.366 135.708 390.273V357.03C135.708 355.887 136.056 354.968 136.752 354.272C137.497 353.577 138.416 353.229 139.51 353.229C140.652 353.229 141.572 353.577 142.267 354.272C142.963 354.968 143.311 355.887 143.311 357.03V357.85C144.851 356.31 146.715 355.092 148.901 354.198C151.088 353.303 153.448 352.856 155.982 352.856C159.411 352.856 162.467 353.601 165.15 355.092C167.883 356.533 170.02 358.67 171.56 361.502C173.15 364.335 173.945 367.813 173.945 371.937V390.273C173.945 391.366 173.573 392.286 172.827 393.031C172.132 393.727 171.237 394.075 170.144 394.075C169.051 394.075 168.131 393.727 167.386 393.031C166.69 392.286 166.343 391.366 166.343 390.273V371.937C166.343 367.714 165.2 364.633 162.914 362.695C160.678 360.707 157.87 359.713 154.491 359.713C152.404 359.713 150.516 360.136 148.827 360.981C147.137 361.825 145.795 362.968 144.802 364.409C143.808 365.801 143.311 367.415 143.311 369.254V390.273C143.311 391.366 142.963 392.286 142.267 393.031C141.572 393.727 140.652 394.075 139.51 394.075ZM139.51 379.167C138.416 379.167 137.497 378.819 136.752 378.124C136.056 377.378 135.708 376.459 135.708 375.366V339.589C135.708 338.446 136.056 337.526 136.752 336.831C137.497 336.135 138.416 335.787 139.51 335.787C140.652 335.787 141.572 336.135 142.267 336.831C142.963 337.526 143.311 338.446 143.311 339.589V375.366C143.311 376.459 142.963 377.378 142.267 378.124C141.572 378.819 140.652 379.167 139.51 379.167ZM205.073 394.298C201.048 394.298 197.495 393.429 194.414 391.689C191.333 389.901 188.898 387.466 187.11 384.385C185.37 381.254 184.501 377.677 184.501 373.652C184.501 369.577 185.37 365.999 187.11 362.918C188.898 359.788 191.333 357.353 194.414 355.614C197.495 353.825 201.048 352.931 205.073 352.931C209.048 352.931 212.576 353.825 215.657 355.614C218.738 357.353 221.148 359.788 222.887 362.918C224.676 365.999 225.57 369.577 225.57 373.652C225.57 377.677 224.701 381.254 222.961 384.385C221.222 387.466 218.812 389.901 215.731 391.689C212.651 393.429 209.098 394.298 205.073 394.298ZM205.073 387.59C207.657 387.59 209.943 386.994 211.93 385.801C213.918 384.608 215.458 382.969 216.551 380.882C217.694 378.795 218.266 376.385 218.266 373.652C218.266 370.919 217.694 368.509 216.551 366.422C215.458 364.285 213.918 362.62 211.93 361.428C209.943 360.235 207.657 359.639 205.073 359.639C202.489 359.639 200.203 360.235 198.215 361.428C196.228 362.62 194.663 364.285 193.52 366.422C192.377 368.509 191.805 370.919 191.805 373.652C191.805 376.385 192.377 378.795 193.52 380.882C194.663 382.969 196.228 384.608 198.215 385.801C200.203 386.994 202.489 387.59 205.073 387.59ZM240.687 394.075C239.593 394.075 238.674 393.727 237.929 393.031C237.233 392.286 236.885 391.366 236.885 390.273V357.105C236.885 355.962 237.233 355.042 237.929 354.347C238.674 353.651 239.593 353.303 240.687 353.303C241.829 353.303 242.749 353.651 243.444 354.347C244.14 355.042 244.488 355.912 244.488 356.956C245.78 355.664 247.32 354.67 249.109 353.974C250.898 353.229 252.836 352.856 254.923 352.856C260.14 352.856 264.066 354.819 266.7 358.744C268.141 356.906 269.979 355.465 272.215 354.421C274.451 353.378 276.961 352.856 279.743 352.856C284.017 352.856 287.495 354.247 290.178 357.03C292.862 359.813 294.203 363.788 294.203 368.956V390.273C294.203 391.366 293.856 392.286 293.16 393.031C292.464 393.727 291.545 394.075 290.402 394.075C289.309 394.075 288.39 393.727 287.644 393.031C286.949 392.286 286.601 391.366 286.601 390.273V368.956C286.601 365.825 285.831 363.515 284.29 362.024C282.75 360.484 280.737 359.713 278.253 359.713C275.669 359.713 273.532 360.608 271.843 362.397C270.203 364.186 269.383 366.471 269.383 369.254V390.273C269.383 391.366 269.035 392.286 268.339 393.031C267.644 393.727 266.724 394.075 265.582 394.075C264.488 394.075 263.569 393.727 262.824 393.031C262.128 392.286 261.78 391.366 261.78 390.273V368.956C261.78 365.825 261.01 363.515 259.47 362.024C257.929 360.484 255.917 359.713 253.432 359.713C250.848 359.713 248.712 360.608 247.022 362.397C245.333 364.186 244.488 366.471 244.488 369.254V390.273C244.488 391.366 244.14 392.286 243.444 393.031C242.749 393.727 241.829 394.075 240.687 394.075ZM311.382 394C310.289 394 309.37 393.652 308.624 392.956C307.929 392.211 307.581 391.292 307.581 390.199V357.03C307.581 355.887 307.929 354.968 308.624 354.272C309.37 353.577 310.289 353.229 311.382 353.229C312.525 353.229 313.444 353.577 314.14 354.272C314.836 354.968 315.184 355.887 315.184 357.03V390.199C315.184 391.292 314.836 392.211 314.14 392.956C313.444 393.652 312.525 394 311.382 394ZM311.382 346.595C310.041 346.595 308.873 346.123 307.879 345.179C306.935 344.185 306.463 343.017 306.463 341.676C306.463 340.334 306.935 339.191 307.879 338.247C308.873 337.253 310.041 336.756 311.382 336.756C312.724 336.756 313.867 337.253 314.811 338.247C315.805 339.191 316.302 340.334 316.302 341.676C316.302 343.017 315.805 344.185 314.811 345.179C313.867 346.123 312.724 346.595 311.382 346.595ZM348.483 394.298C344.359 394.298 340.682 393.429 337.452 391.689C334.272 389.901 331.762 387.466 329.924 384.385C328.135 381.254 327.24 377.677 327.24 373.652C327.24 369.577 328.085 365.999 329.775 362.918C331.514 359.788 333.899 357.353 336.93 355.614C339.961 353.825 343.44 352.931 347.365 352.931C351.241 352.931 354.57 353.8 357.353 355.539C360.136 357.229 362.247 359.589 363.689 362.62C365.179 365.602 365.925 369.055 365.925 372.981C365.925 373.925 365.602 374.72 364.956 375.366C364.31 375.962 363.49 376.26 362.496 376.26H334.172C334.719 379.689 336.284 382.497 338.868 384.683C341.502 386.82 344.707 387.888 348.483 387.888C350.024 387.888 351.589 387.615 353.179 387.068C354.819 386.472 356.136 385.801 357.129 385.056C357.875 384.509 358.67 384.236 359.515 384.236C360.409 384.186 361.179 384.435 361.825 384.981C362.67 385.726 363.117 386.546 363.167 387.441C363.216 388.335 362.819 389.105 361.974 389.751C360.285 391.093 358.173 392.186 355.639 393.031C353.154 393.876 350.769 394.298 348.483 394.298ZM347.365 359.341C343.688 359.341 340.731 360.359 338.495 362.397C336.259 364.434 334.843 367.068 334.247 370.298H359.067C358.62 367.117 357.403 364.509 355.415 362.471C353.427 360.384 350.744 359.341 347.365 359.341Z" fill="#160F29"/>
<path d="M136.752 393.031L135.844 393.879L135.873 393.91L135.904 393.939L136.752 393.031ZM136.752 354.272L135.904 353.364L135.888 353.379L135.873 353.394L136.752 354.272ZM143.311 357.85H142.069V360.849L144.189 358.728L143.311 357.85ZM148.901 354.198L149.372 355.348L149.372 355.348L148.901 354.198ZM165.15 355.092L164.547 356.178L164.559 356.185L164.571 356.191L165.15 355.092ZM171.56 361.502L170.469 362.096L170.473 362.103L170.477 362.11L171.56 361.502ZM172.827 393.031L171.949 392.153L171.949 392.153L172.827 393.031ZM167.386 393.031L166.478 393.879L166.507 393.91L166.538 393.939L167.386 393.031ZM162.914 362.695L162.089 363.623L162.099 363.633L162.111 363.642L162.914 362.695ZM148.827 360.981L148.271 359.869L148.271 359.869L148.827 360.981ZM144.802 364.409L145.813 365.131L145.818 365.123L145.824 365.114L144.802 364.409ZM142.267 393.031L143.146 393.909L143.161 393.894L143.176 393.879L142.267 393.031ZM136.752 378.124L135.844 378.971L135.873 379.003L135.904 379.032L136.752 378.124ZM136.752 336.831L135.904 335.923L135.888 335.937L135.873 335.952L136.752 336.831ZM142.267 378.124L143.146 379.002L143.161 378.987L143.176 378.971L142.267 378.124ZM139.51 392.832C138.706 392.832 138.097 392.587 137.599 392.123L135.904 393.939C136.897 394.866 138.127 395.317 139.51 395.317V392.832ZM137.66 392.183C137.195 391.686 136.951 391.077 136.951 390.273H134.466C134.466 391.656 134.917 392.886 135.844 393.879L137.66 392.183ZM136.951 390.273V357.03H134.466V390.273H136.951ZM136.951 357.03C136.951 356.159 137.205 355.576 137.63 355.151L135.873 353.394C134.907 354.36 134.466 355.615 134.466 357.03H136.951ZM137.599 355.18C138.097 354.716 138.706 354.471 139.51 354.471V351.986C138.127 351.986 136.897 352.437 135.904 353.364L137.599 355.18ZM139.51 354.471C140.381 354.471 140.964 354.726 141.389 355.151L143.146 353.394C142.179 352.427 140.924 351.986 139.51 351.986V354.471ZM141.389 355.151C141.814 355.576 142.069 356.159 142.069 357.03H144.553C144.553 355.615 144.112 354.36 143.146 353.394L141.389 355.151ZM142.069 357.03V357.85H144.553V357.03H142.069ZM144.189 358.728C145.604 357.314 147.325 356.185 149.372 355.348L148.431 353.048C146.105 354 144.099 355.305 142.433 356.972L144.189 358.728ZM149.372 355.348C151.398 354.518 153.597 354.098 155.982 354.098V351.614C153.298 351.614 150.777 352.088 148.431 353.048L149.372 355.348ZM155.982 354.098C159.225 354.098 162.069 354.801 164.547 356.178L165.753 354.006C162.865 352.401 159.597 351.614 155.982 351.614V354.098ZM164.571 356.191C167.077 357.513 169.04 359.469 170.469 362.096L172.651 360.909C170.999 357.871 168.689 355.554 165.729 353.993L164.571 356.191ZM170.477 362.11C171.938 364.713 172.703 367.97 172.703 371.937H175.188C175.188 367.656 174.362 363.956 172.643 360.894L170.477 362.11ZM172.703 371.937V390.273H175.188V371.937H172.703ZM172.703 390.273C172.703 391.051 172.452 391.65 171.949 392.153L173.706 393.909C174.693 392.922 175.188 391.682 175.188 390.273H172.703ZM171.949 392.153C171.513 392.588 170.948 392.832 170.144 392.832V395.317C171.526 395.317 172.75 394.865 173.706 393.909L171.949 392.153ZM170.144 392.832C169.341 392.832 168.731 392.587 168.234 392.123L166.538 393.939C167.531 394.866 168.761 395.317 170.144 395.317V392.832ZM168.294 392.183C167.83 391.686 167.585 391.077 167.585 390.273H165.1C165.1 391.656 165.551 392.886 166.478 393.879L168.294 392.183ZM167.585 390.273V371.937H165.1V390.273H167.585ZM167.585 371.937C167.585 367.504 166.381 364.006 163.717 361.747L162.111 363.642C164.018 365.26 165.1 367.923 165.1 371.937H167.585ZM163.739 361.766C161.246 359.55 158.132 358.471 154.491 358.471V360.956C157.608 360.956 160.11 361.864 162.089 363.623L163.739 361.766ZM154.491 358.471C152.232 358.471 150.15 358.93 148.271 359.869L149.382 362.092C150.882 361.342 152.577 360.956 154.491 360.956V358.471ZM148.271 359.869C146.409 360.8 144.901 362.077 143.779 363.704L145.824 365.114C146.69 363.859 147.865 362.85 149.382 362.092L148.271 359.869ZM143.791 363.687C142.635 365.305 142.069 367.177 142.069 369.254H144.553C144.553 367.654 144.981 366.296 145.813 365.131L143.791 363.687ZM142.069 369.254V390.273H144.553V369.254H142.069ZM142.069 390.273C142.069 391.077 141.824 391.686 141.359 392.183L143.176 393.879C144.102 392.886 144.553 391.656 144.553 390.273H142.069ZM141.389 392.153C140.964 392.578 140.381 392.832 139.51 392.832V395.317C140.924 395.317 142.179 394.876 143.146 393.909L141.389 392.153ZM139.51 377.925C138.706 377.925 138.097 377.68 137.599 377.216L135.904 379.032C136.897 379.959 138.127 380.41 139.51 380.41V377.925ZM137.66 377.276C137.195 376.778 136.951 376.169 136.951 375.366H134.466C134.466 376.749 134.917 377.978 135.844 378.971L137.66 377.276ZM136.951 375.366V339.589H134.466V375.366H136.951ZM136.951 339.589C136.951 338.718 137.205 338.134 137.63 337.709L135.873 335.952C134.907 336.919 134.466 338.174 134.466 339.589H136.951ZM137.599 337.739C138.097 337.274 138.706 337.03 139.51 337.03V334.545C138.127 334.545 136.897 334.996 135.904 335.923L137.599 337.739ZM139.51 337.03C140.381 337.03 140.964 337.284 141.389 337.709L143.146 335.952C142.179 334.986 140.924 334.545 139.51 334.545V337.03ZM141.389 337.709C141.814 338.134 142.069 338.718 142.069 339.589H144.553C144.553 338.174 144.112 336.919 143.146 335.952L141.389 337.709ZM142.069 339.589V375.366H144.553V339.589H142.069ZM142.069 375.366C142.069 376.169 141.824 376.778 141.359 377.276L143.176 378.971C144.102 377.978 144.553 376.749 144.553 375.366H142.069ZM141.389 377.245C140.964 377.67 140.381 377.925 139.51 377.925V380.41C140.924 380.41 142.179 379.969 143.146 379.002L141.389 377.245ZM194.414 391.689L193.79 392.764L193.797 392.767L193.803 392.771L194.414 391.689ZM187.11 384.385L186.024 384.988L186.029 384.998L186.035 385.009L187.11 384.385ZM187.11 362.918L186.031 362.302L186.028 362.308L187.11 362.918ZM194.414 355.614L195.025 356.696L195.031 356.692L195.038 356.688L194.414 355.614ZM215.657 355.614L215.033 356.688L215.04 356.692L215.046 356.696L215.657 355.614ZM222.887 362.918L221.801 363.522L221.807 363.532L221.813 363.542L222.887 362.918ZM222.961 384.385L224.043 384.996L224.047 384.988L222.961 384.385ZM215.731 391.689L216.342 392.771L216.349 392.767L216.355 392.764L215.731 391.689ZM211.93 385.801L211.291 384.736L211.291 384.736L211.93 385.801ZM216.551 380.882L215.462 380.285L215.456 380.295L215.451 380.305L216.551 380.882ZM216.551 366.422L215.445 366.987L215.453 367.003L215.462 367.018L216.551 366.422ZM211.93 361.428L211.291 362.493L211.291 362.493L211.93 361.428ZM198.215 361.428L198.855 362.493L198.855 362.493L198.215 361.428ZM193.52 366.422L194.609 367.018L194.615 367.008L193.52 366.422ZM193.52 380.882L194.609 380.285L194.609 380.285L193.52 380.882ZM198.215 385.801L197.576 386.866L197.576 386.866L198.215 385.801ZM205.073 393.056C201.232 393.056 197.895 392.228 195.025 390.608L193.803 392.771C197.095 394.629 200.864 395.54 205.073 395.54V393.056ZM195.038 390.615C192.144 388.935 189.864 386.655 188.184 383.761L186.035 385.009C187.933 388.276 190.523 390.866 193.79 392.764L195.038 390.615ZM188.196 383.782C186.571 380.858 185.743 377.492 185.743 373.652H183.259C183.259 377.861 184.17 381.651 186.024 384.988L188.196 383.782ZM185.743 373.652C185.743 369.758 186.572 366.397 188.191 363.529L186.028 362.308C184.168 365.602 183.259 369.396 183.259 373.652H185.743ZM188.188 363.535C189.868 360.595 192.143 358.323 195.025 356.696L193.803 354.532C190.524 356.384 187.929 358.981 186.031 362.302L188.188 363.535ZM195.038 356.688C197.906 355.023 201.238 354.173 205.073 354.173V351.688C200.858 351.688 197.084 352.627 193.79 354.54L195.038 356.688ZM205.073 354.173C208.855 354.173 212.163 355.022 215.033 356.688L216.281 354.54C212.989 352.628 209.241 351.688 205.073 351.688V354.173ZM215.046 356.696C217.925 358.321 220.172 360.589 221.801 363.522L223.973 362.315C222.124 358.987 219.551 356.385 216.268 354.532L215.046 356.696ZM221.813 363.542C223.476 366.408 224.328 369.764 224.328 373.652H226.813C226.813 369.39 225.875 365.591 223.961 362.295L221.813 363.542ZM224.328 373.652C224.328 377.492 223.5 380.858 221.876 383.782L224.047 384.988C225.901 381.651 226.813 377.861 226.813 373.652H224.328ZM221.88 383.774C220.25 386.661 217.999 388.936 215.108 390.615L216.355 392.764C219.626 390.865 222.195 388.27 224.043 384.996L221.88 383.774ZM215.121 390.608C212.251 392.228 208.914 393.056 205.073 393.056V395.54C209.282 395.54 213.051 394.629 216.342 392.771L215.121 390.608ZM205.073 388.832C207.855 388.832 210.367 388.188 212.569 386.866L211.291 384.736C209.518 385.8 207.458 386.348 205.073 386.348V388.832ZM212.569 386.866C214.756 385.554 216.455 383.744 217.652 381.458L215.451 380.305C214.462 382.194 213.08 383.663 211.291 384.736L212.569 386.866ZM217.641 381.478C218.898 379.183 219.508 376.562 219.508 373.652H217.023C217.023 376.207 216.49 378.406 215.462 380.285L217.641 381.478ZM219.508 373.652C219.508 370.741 218.898 368.121 217.641 365.825L215.462 367.018C216.49 368.897 217.023 371.096 217.023 373.652H219.508ZM217.657 365.856C216.462 363.52 214.763 361.679 212.569 360.362L211.291 362.493C213.072 363.562 214.454 365.05 215.445 366.987L217.657 365.856ZM212.569 360.362C210.367 359.041 207.855 358.397 205.073 358.397V360.881C207.458 360.881 209.518 361.429 211.291 362.493L212.569 360.362ZM205.073 358.397C202.29 358.397 199.779 359.041 197.576 360.362L198.855 362.493C200.628 361.429 202.688 360.881 205.073 360.881V358.397ZM197.576 360.362C195.387 361.676 193.668 363.51 192.424 365.836L194.615 367.008C195.657 365.06 197.069 363.565 198.855 362.493L197.576 360.362ZM192.43 365.825C191.173 368.121 190.563 370.741 190.563 373.652H193.048C193.048 371.096 193.581 368.897 194.609 367.018L192.43 365.825ZM190.563 373.652C190.563 376.562 191.173 379.183 192.43 381.478L194.609 380.285C193.581 378.406 193.048 376.207 193.048 373.652H190.563ZM192.43 381.478C193.676 383.753 195.394 385.557 197.576 386.866L198.855 384.736C197.061 383.66 195.649 382.184 194.609 380.285L192.43 381.478ZM197.576 386.866C199.779 388.188 202.29 388.832 205.073 388.832V386.348C202.688 386.348 200.628 385.8 198.855 384.736L197.576 386.866ZM237.929 393.031L237.021 393.879L237.05 393.91L237.081 393.939L237.929 393.031ZM237.929 354.347L237.081 353.439L237.065 353.453L237.05 353.468L237.929 354.347ZM244.488 356.956H243.246V359.955L245.366 357.834L244.488 356.956ZM249.109 353.974L249.559 355.132L249.573 355.127L249.587 355.121L249.109 353.974ZM266.7 358.744L265.668 359.437L266.622 360.858L267.677 359.511L266.7 358.744ZM272.215 354.421L272.741 355.547L272.741 355.547L272.215 354.421ZM290.178 357.03L291.073 356.168L291.073 356.168L290.178 357.03ZM293.16 393.031L294.038 393.909L294.053 393.894L294.068 393.879L293.16 393.031ZM287.644 393.031L286.736 393.879L286.765 393.91L286.797 393.939L287.644 393.031ZM284.29 362.024L283.412 362.902L283.419 362.91L283.426 362.917L284.29 362.024ZM271.843 362.397L270.939 361.544L270.933 361.55L270.927 361.557L271.843 362.397ZM268.339 393.031L269.218 393.909L269.233 393.894L269.248 393.879L268.339 393.031ZM262.824 393.031L261.916 393.879L261.945 393.91L261.976 393.939L262.824 393.031ZM259.47 362.024L258.591 362.902L258.598 362.91L258.606 362.917L259.47 362.024ZM247.022 362.397L246.119 361.544L246.119 361.544L247.022 362.397ZM243.444 393.031L244.323 393.909L244.338 393.894L244.353 393.879L243.444 393.031ZM240.687 392.832C239.883 392.832 239.274 392.587 238.776 392.123L237.081 393.939C238.074 394.866 239.304 395.317 240.687 395.317V392.832ZM238.837 392.183C238.372 391.686 238.127 391.077 238.127 390.273H235.643C235.643 391.656 236.094 392.886 237.021 393.879L238.837 392.183ZM238.127 390.273V357.105H235.643V390.273H238.127ZM238.127 357.105C238.127 356.234 238.382 355.65 238.807 355.225L237.05 353.468C236.084 354.435 235.643 355.69 235.643 357.105H238.127ZM238.776 355.255C239.274 354.79 239.883 354.546 240.687 354.546V352.061C239.304 352.061 238.074 352.512 237.081 353.439L238.776 355.255ZM240.687 354.546C241.558 354.546 242.141 354.8 242.566 355.225L244.323 353.468C243.356 352.502 242.101 352.061 240.687 352.061V354.546ZM242.566 355.225C243.013 355.673 243.246 356.219 243.246 356.956H245.73C245.73 355.605 245.267 354.412 244.323 353.468L242.566 355.225ZM245.366 357.834C246.53 356.67 247.923 355.768 249.559 355.132L248.659 352.816C246.718 353.571 245.029 354.657 243.609 356.077L245.366 357.834ZM249.587 355.121C251.213 354.443 252.987 354.098 254.923 354.098V351.614C252.685 351.614 250.583 352.014 248.631 352.827L249.587 355.121ZM254.923 354.098C259.777 354.098 263.292 355.895 265.668 359.437L267.731 358.052C264.84 353.743 260.504 351.614 254.923 351.614V354.098ZM267.677 359.511C268.991 357.835 270.671 356.513 272.741 355.547L271.69 353.296C269.287 354.417 267.29 355.977 265.722 357.978L267.677 359.511ZM272.741 355.547C274.792 354.59 277.119 354.098 279.743 354.098V351.614C276.802 351.614 274.11 352.166 271.69 353.296L272.741 355.547ZM279.743 354.098C283.719 354.098 286.861 355.379 289.284 357.892L291.073 356.168C288.129 353.115 284.315 351.614 279.743 351.614V354.098ZM289.284 357.892C291.677 360.374 292.961 363.998 292.961 368.956H295.446C295.446 363.578 294.046 359.251 291.073 356.168L289.284 357.892ZM292.961 368.956V390.273H295.446V368.956H292.961ZM292.961 390.273C292.961 391.077 292.716 391.686 292.252 392.183L294.068 393.879C294.995 392.886 295.446 391.656 295.446 390.273H292.961ZM292.281 392.153C291.857 392.578 291.273 392.832 290.402 392.832V395.317C291.817 395.317 293.072 394.876 294.038 393.909L292.281 392.153ZM290.402 392.832C289.599 392.832 288.99 392.587 288.492 392.123L286.797 393.939C287.79 394.866 289.019 395.317 290.402 395.317V392.832ZM288.552 392.183C288.088 391.686 287.843 391.077 287.843 390.273H285.358C285.358 391.656 285.809 392.886 286.736 393.879L288.552 392.183ZM287.843 390.273V368.956H285.358V390.273H287.843ZM287.843 368.956C287.843 365.644 287.029 362.946 285.154 361.131L283.426 362.917C284.632 364.084 285.358 366.006 285.358 368.956H287.843ZM285.169 361.146C283.362 359.339 281.016 358.471 278.253 358.471V360.956C280.458 360.956 282.138 361.628 283.412 362.902L285.169 361.146ZM278.253 358.471C275.346 358.471 272.877 359.493 270.939 361.544L272.746 363.25C274.188 361.723 275.991 360.956 278.253 360.956V358.471ZM270.927 361.557C269.046 363.609 268.141 366.209 268.141 369.254H270.625C270.625 366.733 271.359 364.762 272.758 363.236L270.927 361.557ZM268.141 369.254V390.273H270.625V369.254H268.141ZM268.141 390.273C268.141 391.077 267.896 391.686 267.431 392.183L269.248 393.879C270.174 392.886 270.625 391.656 270.625 390.273H268.141ZM267.461 392.153C267.036 392.578 266.453 392.832 265.582 392.832V395.317C266.996 395.317 268.251 394.876 269.218 393.909L267.461 392.153ZM265.582 392.832C264.778 392.832 264.169 392.587 263.671 392.123L261.976 393.939C262.969 394.866 264.199 395.317 265.582 395.317V392.832ZM263.732 392.183C263.267 391.686 263.022 391.077 263.022 390.273H260.538C260.538 391.656 260.989 392.886 261.916 393.879L263.732 392.183ZM263.022 390.273V368.956H260.538V390.273H263.022ZM263.022 368.956C263.022 365.644 262.208 362.946 260.334 361.131L258.606 362.917C259.812 364.084 260.538 366.006 260.538 368.956H263.022ZM260.348 361.146C258.541 359.339 256.196 358.471 253.432 358.471V360.956C255.638 360.956 257.317 361.628 258.591 362.902L260.348 361.146ZM253.432 358.471C250.526 358.471 248.056 359.493 246.119 361.544L247.925 363.25C249.367 361.723 251.171 360.956 253.432 360.956V358.471ZM246.119 361.544C244.183 363.594 243.246 366.199 243.246 369.254H245.73C245.73 366.744 246.482 364.777 247.925 363.25L246.119 361.544ZM243.246 369.254V390.273H245.73V369.254H243.246ZM243.246 390.273C243.246 391.077 243.001 391.686 242.536 392.183L244.353 393.879C245.279 392.886 245.73 391.656 245.73 390.273H243.246ZM242.566 392.153C242.141 392.578 241.558 392.832 240.687 392.832V395.317C242.101 395.317 243.356 394.876 244.323 393.909L242.566 392.153ZM308.624 392.956L307.716 393.804L307.745 393.835L307.777 393.865L308.624 392.956ZM308.624 354.272L307.777 353.364L307.761 353.379L307.746 353.394L308.624 354.272ZM314.14 392.956L315.018 393.835L315.034 393.82L315.048 393.804L314.14 392.956ZM307.879 345.179L306.978 346.034L307 346.058L307.023 346.08L307.879 345.179ZM307.879 338.247L307.001 337.369L307.001 337.369L307.879 338.247ZM314.811 338.247L313.91 339.103L313.932 339.126L313.955 339.148L314.811 338.247ZM314.811 345.179L315.689 346.057L315.689 346.057L314.811 345.179ZM311.382 392.758C310.579 392.758 309.97 392.513 309.472 392.048L307.777 393.865C308.77 394.791 309.999 395.242 311.382 395.242V392.758ZM309.533 392.109C309.068 391.611 308.823 391.002 308.823 390.199H306.339C306.339 391.582 306.789 392.811 307.716 393.804L309.533 392.109ZM308.823 390.199V357.03H306.339V390.199H308.823ZM308.823 357.03C308.823 356.159 309.078 355.576 309.503 355.151L307.746 353.394C306.78 354.36 306.339 355.615 306.339 357.03H308.823ZM309.472 355.18C309.97 354.716 310.579 354.471 311.382 354.471V351.986C309.999 351.986 308.77 352.437 307.777 353.364L309.472 355.18ZM311.382 354.471C312.253 354.471 312.837 354.726 313.262 355.151L315.018 353.394C314.052 352.427 312.797 351.986 311.382 351.986V354.471ZM313.262 355.151C313.687 355.576 313.941 356.159 313.941 357.03H316.426C316.426 355.615 315.985 354.36 315.018 353.394L313.262 355.151ZM313.941 357.03V390.199H316.426V357.03H313.941ZM313.941 390.199C313.941 391.002 313.696 391.611 313.232 392.109L315.048 393.804C315.975 392.811 316.426 391.582 316.426 390.199H313.941ZM313.262 392.078C312.837 392.503 312.253 392.758 311.382 392.758V395.242C312.797 395.242 314.052 394.801 315.018 393.835L313.262 392.078ZM311.382 345.353C310.367 345.353 309.503 345.008 308.735 344.278L307.023 346.08C308.243 347.238 309.715 347.837 311.382 347.837V345.353ZM308.78 344.323C308.05 343.555 307.705 342.691 307.705 341.676H305.221C305.221 343.343 305.82 344.815 306.978 346.034L308.78 344.323ZM307.705 341.676C307.705 340.662 308.048 339.835 308.757 339.125L307.001 337.369C305.822 338.547 305.221 340.006 305.221 341.676H307.705ZM308.757 339.125C309.531 338.352 310.387 337.999 311.382 337.999V335.514C309.694 335.514 308.215 336.154 307.001 337.369L308.757 339.125ZM311.382 337.999C312.375 337.999 313.195 338.35 313.91 339.103L315.712 337.391C314.539 336.157 313.073 335.514 311.382 335.514V337.999ZM313.955 339.148C314.708 339.863 315.059 340.683 315.059 341.676H317.544C317.544 339.985 316.901 338.519 315.667 337.346L313.955 339.148ZM315.059 341.676C315.059 342.671 314.706 343.527 313.932 344.3L315.689 346.057C316.904 344.843 317.544 343.364 317.544 341.676H315.059ZM313.932 344.3C313.223 345.01 312.396 345.353 311.382 345.353V347.837C313.052 347.837 314.511 347.236 315.689 346.057L313.932 344.3ZM337.452 391.689L336.843 392.772L336.853 392.778L336.863 392.783L337.452 391.689ZM329.924 384.385L328.845 385.001L328.851 385.011L328.857 385.021L329.924 384.385ZM329.775 362.918L328.689 362.315L328.685 362.321L329.775 362.918ZM336.93 355.614L337.548 356.691L337.555 356.688L337.561 356.684L336.93 355.614ZM357.353 355.539L356.695 356.593L356.701 356.597L356.708 356.601L357.353 355.539ZM363.689 362.62L362.567 363.154L362.572 363.165L362.577 363.176L363.689 362.62ZM364.956 375.366L365.798 376.279L365.816 376.262L365.834 376.244L364.956 375.366ZM334.172 376.26V375.018H332.716L332.945 376.456L334.172 376.26ZM338.868 384.683L338.066 385.631L338.075 385.64L338.085 385.648L338.868 384.683ZM353.179 387.068L353.583 388.243L353.593 388.239L353.603 388.236L353.179 387.068ZM357.129 385.056L356.395 384.054L356.384 384.062L357.129 385.056ZM359.515 384.236V385.478H359.549L359.583 385.476L359.515 384.236ZM361.825 384.981L362.647 384.05L362.637 384.041L362.628 384.033L361.825 384.981ZM363.167 387.441L364.407 387.372L364.407 387.372L363.167 387.441ZM361.974 389.751L361.22 388.765L361.211 388.772L361.202 388.779L361.974 389.751ZM355.639 393.031L355.246 391.852L355.239 391.855L355.639 393.031ZM334.247 370.298L333.025 370.072L332.754 371.54H334.247V370.298ZM359.067 370.298V371.54H360.496L360.297 370.125L359.067 370.298ZM355.415 362.471L354.515 363.328L354.521 363.333L354.526 363.339L355.415 362.471ZM348.483 393.056C344.538 393.056 341.068 392.226 338.041 390.596L336.863 392.783C340.295 394.631 344.179 395.54 348.483 395.54V393.056ZM338.061 390.607C335.066 388.922 332.716 386.64 330.99 383.748L328.857 385.021C330.808 388.292 333.477 390.879 336.843 392.772L338.061 390.607ZM331.002 383.769C329.333 380.847 328.483 377.486 328.483 373.652H325.998C325.998 377.867 326.937 381.662 328.845 385.001L331.002 383.769ZM328.483 373.652C328.483 369.752 329.29 366.386 330.864 363.516L328.685 362.321C326.88 365.612 325.998 369.402 325.998 373.652H328.483ZM330.861 363.522C332.493 360.584 334.718 358.315 337.548 356.691L336.312 354.536C333.079 356.391 330.535 358.992 328.689 362.315L330.861 363.522ZM337.561 356.684C340.38 355.02 343.635 354.173 347.365 354.173V351.688C343.244 351.688 339.542 352.63 336.299 354.544L337.561 356.684ZM347.365 354.173C351.051 354.173 354.143 354.998 356.695 356.593L358.011 354.486C354.998 352.603 351.431 351.688 347.365 351.688V354.173ZM356.708 356.601C359.277 358.161 361.226 360.334 362.567 363.154L364.81 362.087C363.269 358.844 360.994 356.297 357.998 354.478L356.708 356.601ZM362.577 363.176C363.968 365.957 364.682 369.214 364.682 372.981H367.167C367.167 368.897 366.391 365.247 364.8 362.065L362.577 363.176ZM364.682 372.981C364.682 373.608 364.482 374.083 364.077 374.488L365.834 376.244C366.722 375.357 367.167 374.242 367.167 372.981H364.682ZM364.113 374.453C363.727 374.81 363.221 375.018 362.496 375.018V377.503C363.758 377.503 364.892 377.115 365.798 376.279L364.113 374.453ZM362.496 375.018H334.172V377.503H362.496V375.018ZM332.945 376.456C333.538 380.17 335.248 383.248 338.066 385.631L339.67 383.735C337.32 381.746 335.9 379.208 335.399 376.065L332.945 376.456ZM338.085 385.648C340.966 387.984 344.456 389.13 348.483 389.13V386.646C344.957 386.646 342.038 385.655 339.651 383.718L338.085 385.648ZM348.483 389.13C350.173 389.13 351.875 388.83 353.583 388.243L352.775 385.893C351.303 386.399 349.874 386.646 348.483 386.646V389.13ZM353.603 388.236C355.316 387.613 356.752 386.891 357.875 386.049L356.384 384.062C355.519 384.711 354.322 385.331 352.754 385.901L353.603 388.236ZM357.864 386.057C358.417 385.652 358.959 385.478 359.515 385.478V382.994C358.38 382.994 357.332 383.367 356.395 384.054L357.864 386.057ZM359.583 385.476C360.181 385.443 360.634 385.601 361.023 385.929L362.628 384.033C361.724 383.268 360.637 382.929 359.446 382.995L359.583 385.476ZM361.003 385.913C361.667 386.498 361.9 387.028 361.926 387.51L364.407 387.372C364.335 386.065 363.673 384.955 362.647 384.05L361.003 385.913ZM361.926 387.51C361.949 387.913 361.808 388.315 361.22 388.765L362.729 390.738C363.83 389.896 364.484 388.758 364.407 387.372L361.926 387.51ZM361.202 388.779C359.649 390.011 357.674 391.043 355.246 391.853L356.031 394.21C358.672 393.329 360.92 392.175 362.747 390.724L361.202 388.779ZM355.239 391.855C352.864 392.662 350.614 393.056 348.483 393.056V395.54C350.923 395.54 353.444 395.089 356.039 394.207L355.239 391.855ZM347.365 358.098C343.449 358.098 340.171 359.19 337.659 361.478L339.332 363.315C341.292 361.529 343.927 360.583 347.365 360.583V358.098ZM337.659 361.478C335.205 363.714 333.666 366.6 333.025 370.072L335.468 370.523C336.02 367.536 337.314 365.154 339.332 363.315L337.659 361.478ZM334.247 371.54H359.067V369.055H334.247V371.54ZM360.297 370.125C359.818 366.718 358.5 363.854 356.304 361.604L354.526 363.339C356.305 365.163 357.422 367.517 357.837 370.471L360.297 370.125ZM356.315 361.614C354.052 359.239 351.02 358.098 347.365 358.098V360.583C350.468 360.583 352.803 361.53 354.515 363.328L356.315 361.614Z" fill="#160F29"/>
<path d="M169.709 205.738H178.612V223.544V268.058C178.612 277.878 186.598 285.864 196.418 285.864H303.253C313.072 285.864 321.058 277.878 321.058 268.058V223.544V205.738H329.961C333.558 205.738 336.817 203.566 338.188 200.245C339.568 196.915 338.802 193.087 336.256 190.541L256.129 110.414C252.648 106.933 247.022 106.933 243.541 110.414L163.414 190.541C160.868 193.087 160.103 196.915 161.482 200.245C162.862 203.566 166.112 205.738 169.709 205.738ZM249.835 129.298L303.253 182.715V223.544L303.261 268.058H196.418V223.544V196.835V182.724L249.835 129.298Z" fill="#160F29"/>
<path d="M249.835 241.35C269.475 241.35 285.447 225.378 285.447 205.738C285.447 186.098 269.475 170.126 249.835 170.126C230.195 170.126 214.223 186.098 214.223 205.738C214.223 225.378 230.195 241.35 249.835 241.35ZM249.835 187.932C259.655 187.932 267.641 195.918 267.641 205.738C267.641 215.558 259.655 223.544 249.835 223.544C240.015 223.544 232.029 215.558 232.029 205.738C232.029 195.918 240.015 187.932 249.835 187.932Z" fill="#160F29"/>
</svg>
